<svg id="Layer_1" data-name="Layer 1" xmlns="http://www.w3.org/2000/svg" viewBox="0 0 125 125"><defs><style>.cls-1{fill:#c7e0c6;}.cls-2{fill:#3d3d3d;}</style></defs><circle class="cls-1" cx="62.5" cy="62.5" r="62.5"/><path id="svg_1" data-name="svg 1" class="cls-2" d="M105.12,66.49h-3.76V62.74c0-6.19-5.63-9.37-11.26-9.37H33.77c-7.51,0-15-4.5-15-13.13s7.51-13.12,15-13.12H92.35c7.51,0,12.77,5.25,12.77,13.12v9.38h-3.76V40.24c0-5.81-3.38-9.38-9-9.38H33.77c-5.63,0-11.26,3.19-11.26,9.38s5.63,9.37,11.26,9.37H90.1c7.51,0,15,4.5,15,13.13v3.75Z" transform="translate(-2.25 -2.12)"/><path id="svg_2" data-name="svg 2" class="cls-2" d="M92,102.12H31.89c-8.07,0-13.14-5.22-13.14-13.54V40.24h3.76V88.58c0,6.19,3.37,9.67,9.38,9.67H92c5.64,0,9.39-3.87,9.39-9.67V84.71h3.76v3.87C105.12,96.51,99.67,102.12,92,102.12Z" transform="translate(-2.25 -2.12)"/><rect id="svg_3" data-name="svg 3" class="cls-2" x="28.7" y="32.5" width="58.2" height="3.75"/><rect id="svg_4" data-name="svg 4" class="cls-2" x="47.48" y="40" width="39.43" height="3.75"/><path id="svg_5" data-name="svg 5" class="cls-2" d="M105.12,87.12H93.85a11.25,11.25,0,1,1,0-22.5h11.27a5.52,5.52,0,0,1,5.63,5.62V81.49A5.53,5.53,0,0,1,105.12,87.12ZM93.85,68.37a7.5,7.5,0,1,0,0,15h11.27A1.77,1.77,0,0,0,107,81.49V70.24a1.77,1.77,0,0,0-1.87-1.87Z" transform="translate(-2.25 -2.12)"/><path id="svg_6" data-name="svg 6" class="cls-2" d="M95.73,81.49a5.63,5.63,0,1,1,5.63-5.62A5.53,5.53,0,0,1,95.73,81.49Zm0-7.5a1.88,1.88,0,1,0,1.88,1.88A1.77,1.77,0,0,0,95.73,74Z" transform="translate(-2.25 -2.12)"/></svg>